<svg width="159" height="62" viewBox="0 0 159 62" fill="none" xmlns="http://www.w3.org/2000/svg">
<path d="M16.2734 38.9907C16.0918 38.9599 15.9504 38.909 15.8386 38.8581C15.7172 38.7976 15.636 38.716 15.5863 38.6142C15.5251 38.5028 15.4649 38.3808 15.4248 38.2387L14.1002 33.819L13.7667 32.6915L10.6425 22.2166H9.03506L9.32846 23.1923L7.06444 30.8331H7.05392V30.8437L5.30502 36.7462C5.18365 37.2034 5.0422 37.5789 4.91127 37.8843C4.7899 38.1791 4.64846 38.4231 4.48695 38.5854C4.335 38.7582 4.17349 38.8802 3.98139 38.9407C3.77879 39.0118 3.53604 39.0425 3.26367 39.0425V39.2865H7.38841V39.0425C6.46809 39.0425 5.94246 38.7381 5.80102 38.1282C5.65958 37.5184 5.77044 36.655 6.0839 35.5573L6.72135 33.4233L6.76148 33.2812L6.85228 32.9153L7.28711 31.4728L7.39797 31.0972L9.56164 23.8934L12.2404 32.9153L12.3112 33.1592C11.9872 33.2207 11.6536 33.2504 11.3201 33.2408C11.3201 33.2408 10.6626 33.2005 9.84357 32.9162H8.09467C8.18546 33.0487 8.29727 33.1698 8.40813 33.2821H12.3609L12.4717 33.6586L12.6743 34.3395L13.6453 37.601C13.8575 38.2406 13.8575 38.6372 13.6759 38.7995C13.4933 38.9618 13.0996 39.0435 12.4822 39.0435V39.2874H17.0017V39.0435C16.6882 39.0435 16.4454 39.0233 16.2734 38.9926V38.9907Z" fill="black"/>
<path d="M26.0242 22.5967C26.2268 22.4748 26.631 22.4239 27.2475 22.4239V22.1799H17.6629V25.2282H17.875C17.875 24.9132 17.9152 24.6087 17.9763 24.2832C18.0375 23.9682 18.1484 23.6839 18.3003 23.4198C18.4618 23.1662 18.6539 22.9521 18.9072 22.7898C19.1595 22.6275 19.4634 22.5458 19.817 22.5458H24.1845V38.9041H19.9384C19.5848 38.9041 19.2608 38.8129 18.9578 38.6294C18.6549 38.4364 18.3921 38.1828 18.1589 37.8467C17.9267 37.5115 17.724 37.1255 17.552 36.699C17.38 36.2726 17.2491 35.8049 17.1478 35.3171H16.905L17.4211 39.2489H27.2484V39.0049H27.1471C26.5909 38.9944 26.2172 38.9339 26.0251 38.8321C25.8225 38.7207 25.7222 38.5171 25.7222 38.2222V23.2066C25.7222 22.9117 25.8235 22.7091 26.0251 22.5967H26.0242Z" fill="black"/>
<path d="M24.7762 29.9072L24.5239 30.1003C24.4426 29.9581 24.3624 29.8256 24.2811 29.7036C23.6446 28.7999 22.9871 28.6366 22.9871 28.6366C21.8346 28.0575 19.9949 29.4184 19.3976 29.8967C19.2762 29.9985 19.2055 30.059 19.2055 30.059L18.7812 30.4047L16.8096 32.0201C15.788 32.9142 14.7472 33.5039 14.1002 33.8189C13.696 34.0119 13.4532 34.1031 13.4532 34.1031C13.1904 34.1944 12.9276 34.276 12.6743 34.3365C11.4405 34.641 10.3491 34.5497 9.12586 33.8592C8.85254 33.7065 8.6203 33.5039 8.40814 33.2801C8.29728 33.1687 8.18547 33.0467 8.09468 32.9142C7.72005 32.4263 7.44768 31.8779 7.28617 31.4717C7.14472 31.1259 7.06349 30.882 7.05298 30.8417V30.8311H7.06349L7.19442 30.7495C7.25558 30.8714 7.32535 30.9829 7.39703 31.0952C8.03447 32.0911 9.02456 32.629 9.84358 32.9142C10.6626 33.1985 11.3201 33.2388 11.3201 33.2388C11.6537 33.2494 11.9872 33.2186 12.3112 33.1572H12.3217C12.8167 33.0659 13.2927 32.9036 13.7676 32.6895C14.9307 32.1708 16.0221 31.3584 17.0131 30.5459C17.771 29.936 18.3683 29.5192 18.7821 29.2349C18.8729 29.1735 18.9541 29.1235 19.0249 29.0822C19.3785 28.8585 19.5505 28.7672 19.5505 28.7672C22.0076 27.4054 23.5644 28.4628 24.2821 29.2446C24.6156 29.5999 24.7781 29.9053 24.7781 29.9053L24.7762 29.9072Z" fill="black"/>
<path d="M6.71948 33.4221L6.75962 33.28L6.85041 32.9141" fill="black"/>
<path d="M12.4717 33.6564L12.3504 33.28L12.3198 33.158H12.3102L12.2395 32.9141" fill="black"/>
<path d="M15 45.5273C6.72982 45.5273 0 38.7975 0 30.5255C0 22.2534 6.72888 15.5273 15 15.5273C23.2711 15.5273 30 22.2572 30 30.5255C30 38.7937 23.2702 45.5273 15 45.5273ZM15 16.0124C6.99602 16.0124 0.485032 22.5215 0.485032 30.5264C0.485032 38.5313 6.99602 45.0433 15 45.0433C23.004 45.0433 29.515 38.5313 29.515 30.5264C29.515 22.5215 23.004 16.0124 15 16.0124Z" fill="black"/>
<path d="M44.1436 35.9405H42L46.2901 24H48.4203L52.7132 35.9405H50.5161L49.5576 33.1803H45.1213L44.1436 35.9405ZM47.0871 27.5611L45.7214 31.4161H48.9574L47.5917 27.5611C47.5468 27.395 47.5 27.2327 47.4455 27.0694C47.392 26.9071 47.3566 26.7659 47.3471 26.6449C47.3251 26.7534 47.2897 26.8936 47.2419 27.0627C47.1913 27.2288 47.1406 27.395 47.0862 27.5601L47.0871 27.5611Z" fill="black"/>
<path d="M68.2244 30.1734C68.2244 31.3825 67.9826 32.4552 67.4942 33.3839C67.0049 34.3155 66.3293 35.0435 65.4624 35.5669C64.5956 36.0903 63.5922 36.3515 62.4549 36.3515C61.3176 36.3515 60.3304 36.0903 59.4636 35.5669C58.5968 35.0435 57.9202 34.3193 57.4375 33.3935C56.9549 32.4677 56.7131 31.3988 56.7131 30.1897C56.7131 28.9806 56.9578 27.8953 57.4471 26.9637C57.9326 26.0322 58.6092 25.308 59.4703 24.7846C60.3342 24.2612 61.3339 24 62.4711 24C63.6084 24 64.6081 24.2612 65.472 24.7846C66.3321 25.308 67.0059 26.0322 67.4952 26.958C67.9845 27.8838 68.2253 28.9556 68.2253 30.1743L68.2244 30.1734ZM66.0464 30.1734C66.0464 29.3244 65.9001 28.5906 65.6077 27.9683C65.3153 27.3489 64.9024 26.8677 64.373 26.5229C63.8426 26.1782 63.208 26.0091 62.4711 26.0091C61.7343 26.0091 61.1122 26.1782 60.5751 26.5229C60.038 26.8677 59.6261 27.3498 59.3336 27.9683C59.0412 28.5906 58.895 29.3244 58.895 30.1734C58.895 31.0223 59.0412 31.7628 59.3336 32.388C59.6261 33.0132 60.0389 33.4953 60.5751 33.8334C61.1122 34.1714 61.7439 34.3405 62.4711 34.3405C63.1984 34.3405 63.8426 34.1686 64.373 33.8267C64.9034 33.4819 65.3162 32.9969 65.6077 32.3717C65.9001 31.7465 66.0464 31.0127 66.0464 30.1734ZM66.7287 37.0536L62.4702 32.2161L63.7881 31.0262L68.0619 35.8608L66.7287 37.0545V37.0536Z" fill="black"/>
<path d="M72.2263 31.5784V24H74.3059V31.4478C74.3059 32.3093 74.5343 32.9671 74.9882 33.4262C75.445 33.8824 76.0901 34.1119 76.9254 34.1119C77.7607 34.1119 78.4211 33.8785 78.875 33.4166C79.329 32.9537 79.5574 32.2968 79.5574 31.4478V24H81.6369V31.5784C81.6369 32.5042 81.4468 33.3081 81.0626 33.988C80.6755 34.6708 80.1317 35.1971 79.4274 35.5736C78.7221 35.9501 77.8878 36.1383 76.9254 36.1383C75.963 36.1383 75.1411 35.953 74.4358 35.5832C73.7305 35.2135 73.1877 34.6833 72.8035 33.9976C72.4165 33.3119 72.2253 32.5042 72.2253 31.5784H72.2263Z" fill="black"/>
<path d="M87.7834 35.9405H85.637L89.9299 24H92.0573L96.3502 35.9405H94.1559L93.1974 33.1803H88.7582L87.7834 35.9405ZM90.7269 27.5611L89.3613 31.4161H92.5934L91.2277 27.5611C91.1866 27.395 91.136 27.2327 91.0815 27.0694C91.028 26.9071 90.9955 26.7659 90.9859 26.6449C90.964 26.7534 90.9286 26.8936 90.8779 27.0627C90.8302 27.2288 90.7795 27.395 90.726 27.5601L90.7269 27.5611Z" fill="black"/>
<path d="M107.73 35.9405H100.35V24H107.73V25.9275H101.7L102.43 25.2571V28.9969H107.177V30.8447H102.43V34.6833L101.7 34.013H107.73V35.9405Z" fill="black"/>
<path d="M113.813 24V35.9405H111.73V24H113.813ZM112.089 35.9405V34.013H118.771V35.9405H112.089Z" fill="black"/>
<path d="M124.85 24V35.9405H122.771V24H124.85Z" fill="black"/>
<path d="M132.883 29.9774L128.933 24.001H131.404L132.852 26.1551C133.09 26.5056 133.315 26.86 133.524 27.2269C133.737 27.5909 133.956 27.9731 134.185 28.3784L136.948 24H139.37L135.484 29.9611L139.386 35.9414H136.931L135.598 33.9659C135.329 33.5606 135.084 33.1717 134.868 32.7885C134.649 32.4091 134.417 32.0039 134.169 31.5794L131.289 35.9414H128.85L132.883 29.9774Z" fill="black"/>
<path d="M145.465 24V35.9405H143.386V24H145.465Z" fill="black"/>
<path d="M151.545 35.9405H149.465V24H154C155.347 24 156.394 24.3256 157.147 24.9796C157.899 25.6336 158.278 26.546 158.278 27.7234C158.278 28.5177 158.097 29.1976 157.732 29.7566C157.37 30.3184 156.837 30.7457 156.131 31.0396L158.392 35.9414H156.116L154.099 31.4804H151.547V35.9414L151.545 35.9405ZM151.545 25.8603V29.6355H153.999C154.662 29.6355 155.177 29.4665 155.545 29.1285C155.913 28.7904 156.098 28.3246 156.098 27.7244C156.098 27.1241 155.913 26.6651 155.545 26.3424C155.177 26.0235 154.662 25.8603 153.999 25.8603H151.545Z" fill="black"/>
</svg>
