<svg width="28" height="28" viewBox="0 0 28 28" fill="none" xmlns="http://www.w3.org/2000/svg">
<path d="M14 3.5C8.211 3.5 3.5 8.211 3.5 14C3.5 19.789 8.211 24.5 14 24.5C19.789 24.5 24.5 19.789 24.5 14C24.5 8.211 19.789 3.5 14 3.5ZM14 5.25C18.8431 5.25 22.75 9.15688 22.75 14C22.7521 16.0947 22.001 18.1204 20.6337 19.7073C19.2664 21.2942 17.374 22.3365 15.302 22.6441V16.5515H17.794L18.1851 14.0201H15.302V12.6376C15.302 11.5876 15.6476 10.654 16.6303 10.654H18.2096V8.4455C17.9323 8.40788 17.3451 8.3265 16.2356 8.3265C13.9186 8.3265 12.5606 9.54975 12.5606 12.3375V14.0201H10.1789V16.5515H12.5606V22.6222C10.5173 22.2859 8.66008 21.2341 7.32086 19.6546C5.98163 18.0751 5.24763 16.0708 5.25 14C5.25 9.15688 9.15688 5.25 14 5.25Z" fill="white"/>
</svg>
