<svg width="24" height="24" viewBox="0 0 24 24" fill="none" xmlns="http://www.w3.org/2000/svg">
<g clip-path="url(#clip0_95_175)">
<path d="M23.1648 2.39999L23.9648 2.34719C23.9544 2.19014 23.8979 2.03963 23.8024 1.91452C23.7069 1.78942 23.5766 1.69526 23.4278 1.64385C23.2791 1.59244 23.1185 1.58606 22.9661 1.6255C22.8137 1.66494 22.6763 1.74846 22.5712 1.86559L23.1648 2.39999ZM22.368 7.13439C22.368 6.92222 22.2837 6.71874 22.1337 6.56871C21.9837 6.41868 21.7802 6.33439 21.568 6.33439C21.3558 6.33439 21.1523 6.41868 21.0023 6.56871C20.8523 6.71874 20.768 6.92222 20.768 7.13439H22.368ZM0.800004 20V19.2C0.628227 19.1998 0.460943 19.2549 0.322901 19.3571C0.184859 19.4593 0.0833889 19.6033 0.0335024 19.7677C-0.016384 19.932 -0.0120374 20.1081 0.0458991 20.2698C0.103836 20.4315 0.212285 20.5703 0.355204 20.6656L0.800004 20ZM2.3968 2.39999L3.1472 2.11999C3.09267 1.97392 2.99665 1.84698 2.87093 1.75475C2.74522 1.66253 2.59529 1.60905 2.43959 1.60089C2.28389 1.59273 2.1292 1.63025 1.99454 1.70883C1.85987 1.78741 1.7511 1.90362 1.6816 2.04319L2.3968 2.39999ZM8.7872 16.8L9.3536 17.3648C9.4497 17.2684 9.51961 17.1491 9.55672 17.0181C9.59383 16.8871 9.59691 16.7489 9.56567 16.6164C9.53443 16.4839 9.46991 16.3616 9.3782 16.261C9.2865 16.1604 9.17064 16.0849 9.0416 16.0416L8.7872 16.8ZM20.3456 3.95679L19.7536 4.49439L20.0416 4.81279L20.4656 4.74879L20.3456 3.95679ZM22.368 2.45279C22.4496 3.69759 22.3728 4.45279 22.1712 5.02239C21.976 5.57439 21.6336 6.02879 21.0144 6.62239L22.1216 7.77759C22.8224 7.10559 23.3632 6.44639 23.68 5.55679C23.9888 4.68319 24.0528 3.67199 23.9648 2.34719L22.368 2.45279ZM22.368 8.29919V7.13439H20.768V8.30079H22.368V8.29919ZM11.184 7.26559V8.79999H12.784V7.26559H11.184ZM11.184 8.79999V9.59999H12.784V8.79999H11.184ZM16.84 1.59999C16.0964 1.60041 15.3602 1.74729 14.6733 2.03224C13.9865 2.31719 13.3625 2.73463 12.837 3.26073C12.3115 3.78683 11.8948 4.41129 11.6106 5.09844C11.3264 5.7856 11.1804 6.522 11.1808 7.26559H12.7808C12.7804 6.73198 12.8851 6.2035 13.089 5.71037C13.2928 5.21723 13.5919 4.76909 13.969 4.39154C14.3461 4.01399 14.7938 3.71444 15.2867 3.50999C15.7796 3.30554 16.308 3.2002 16.8416 3.19999V1.59999H16.84ZM20.7664 8.29919C20.768 15.2048 15.1792 20.8 8.288 20.8V22.4C16.064 22.4 22.368 16.0864 22.368 8.29919H20.7664ZM1.648 2.67999C2.5184 5.00319 5.7824 9.59999 11.984 9.59999V7.99999C6.6784 7.99999 3.8736 4.06399 3.1456 2.11999L1.648 2.67999ZM1.6816 2.04319C0.00640373 5.39679 -0.251196 8.65119 0.966404 11.4224C2.1808 14.1856 4.7936 16.3104 8.5344 17.5584L9.0416 16.0416C5.5936 14.8896 3.4128 13.0144 2.4304 10.7776C1.4512 8.54879 1.5936 5.80159 3.1136 2.75679L1.6816 2.04319ZM8.2208 16.2352C7.2576 17.2 4.3616 19.2 0.800004 19.2V20.8C4.9056 20.8 8.1872 18.5344 9.3536 17.3648L8.2208 16.2352ZM20.9392 3.42079C20.4219 2.84712 19.7898 2.38857 19.0839 2.0749C18.378 1.76123 17.6141 1.59943 16.8416 1.59999V3.19999C17.9952 3.19999 19.0336 3.69759 19.7536 4.49439L20.9392 3.42079ZM20.4656 4.74879C21.7401 4.54058 22.904 3.89986 23.7616 2.93439L22.5712 1.86559C21.9612 2.55478 21.1333 3.01391 20.2256 3.16639L20.4656 4.74879ZM0.355204 20.6656C2.9808 22.416 5.7328 22.4 8.288 22.4V20.8C5.68 20.8 3.4112 20.7824 1.2448 19.3344L0.355204 20.6656Z" fill="white"/>
</g>
<defs>
<clipPath id="clip0_95_175">
<rect width="24" height="24" fill="white"/>
</clipPath>
</defs>
</svg>
